<?xml version="1.0" encoding="UTF-8"?>
<svg id="Capa_1" data-name="Capa 1" xmlns="http://www.w3.org/2000/svg" xmlns:xlink="http://www.w3.org/1999/xlink" viewBox="0 0 899.62 265.17">
  <defs>
    <style>
      .cls-1 {
        fill: url(#Degradado_sin_nombre_5);
      }

      .cls-2 {
        fill: url(#Degradado_sin_nombre_5-4);
        stroke: url(#Degradado_sin_nombre_5-5);
      }

      .cls-2, .cls-3, .cls-4 {
        stroke-miterlimit: 10;
        stroke-width: 2px;
      }

      .cls-3 {
        fill: url(#Degradado_sin_nombre_5-2);
        stroke: url(#Degradado_sin_nombre_5-3);
      }

      .cls-5 {
        font-family: BritannicBold, 'Britannic Bold';
        font-size: 75.87px;
        letter-spacing: .3em;
      }

      .cls-5, .cls-4 {
        fill: #a6539b;
      }

      .cls-4 {
        stroke: #a6539b;
      }
    </style>
    <linearGradient id="Degradado_sin_nombre_5" data-name="Degradado sin nombre 5" x1="98.47" y1="58.48" x2="183.5" y2="58.48" gradientUnits="userSpaceOnUse">
      <stop offset="0" stop-color="#b04e98"/>
      <stop offset="1" stop-color="#4ea0d8"/>
    </linearGradient>
    <linearGradient id="Degradado_sin_nombre_5-2" data-name="Degradado sin nombre 5" x1="1" y1="132.59" x2="279.46" y2="132.59" xlink:href="#Degradado_sin_nombre_5"/>
    <linearGradient id="Degradado_sin_nombre_5-3" data-name="Degradado sin nombre 5" x1="0" y1="132.59" x2="280.46" y2="132.59" xlink:href="#Degradado_sin_nombre_5"/>
    <linearGradient id="Degradado_sin_nombre_5-4" data-name="Degradado sin nombre 5" x1="123.52" y1="149.97" x2="158.45" y2="149.97" xlink:href="#Degradado_sin_nombre_5"/>
    <linearGradient id="Degradado_sin_nombre_5-5" data-name="Degradado sin nombre 5" x1="122.52" y1="149.97" x2="159.45" y2="149.97" xlink:href="#Degradado_sin_nombre_5"/>
  </defs>
  <g>
    <path class="cls-1" d="M183.5,43.51c0-23.44-19.08-42.51-42.51-42.51s-42.51,19.08-42.51,42.51c0,16.26,9.09,30.86,23.69,38.12l.19.1-.02.21c-.31,2.89-.27,6.83-.25,7.93h.02v.31c-.06,1.54.31,2.82,1.06,3.76l.12.13-.06.17c-.64,1.56-.83,3.51-1,5.07l-.12,1c-.17,1.35.21,2.68,1.06,3.78.37.46.83.85,1.35,1.2l.21.14-.08.21c-.37,1.14-.46,2.31-.54,3.45l-.08.81c-.15,1.25.19,2.51.98,3.51.87,1.08,2.16,1.79,3.57,1.93,1.08.12,2.18.19,3.28.29l.37.02-.05.18c.24-.02.48-.04.72-.04h6.33c.59,0,1.16.07,1.72.18,2.69-.08,5.37-.16,8.06-.18.28,0,.53.05.79.07l-.05-.21.37-.02c1.1-.1,2.2-.17,3.28-.29,1.41-.14,2.72-.85,3.57-1.93.79-1,1.14-2.24.96-3.55-.14-1.14-.33-2.68-.75-4.13l-.08-.23.21-.12c.6-.35,1.1-.79,1.5-1.29.85-1.1,1.23-2.43,1.06-3.76l-.12-1c-.12-1.22-.33-3.47-1.08-5.17l-.1-.17.14-.15.1-.1c.83-1.06,1.22-2.37,1.06-3.7-.14-2.95-.29-5.98-.41-8.02l-.02-.21.19-.08c14.72-7.21,23.86-21.85,23.86-38.21Z"/>
    <path class="cls-3" d="M279.46,1v132.11c0,17.15-2.26,33.64-6.69,49.03-4.53,15.8-11.9,29.94-21.87,42.01-10.17,12.31-23.53,22.16-39.7,29.3-19.64,8.66-42.47,11.27-64.46,10.59-5.81.17-7.12.15-12.5,0-22.36.69-46.06-1.95-66.09-11.17-16.26-7.48-29.59-17.57-39.6-29.99-9.86-12.21-17.01-26.43-21.28-42.22-4.17-15.35-6.27-31.36-6.27-47.55V1h79.72v132.11c0,11.44,1.29,22.65,3.84,33.33,2.45,10.2,6.52,19.31,12.13,27.04,5.4,7.46,12.71,13.6,21.7,18.23,6,3.11,13.29,5.15,21.68,6.13,8.58-1,16.01-3.09,22.14-6.29,9.12-4.75,16.49-10.98,21.89-18.56,5.61-7.83,9.64-16.97,11.96-27.18,2.41-10.72,3.65-21.72,3.65-32.71V1h79.74Z"/>
    <path class="cls-2" d="M143.95,139.23v21.49c0,1.5,1.22,2.72,2.72,2.72h9.06c1.5,0,2.72,1.22,2.72,2.72h0c0,1.5-1.22,2.72-2.72,2.72h-29.5c-1.5,0-2.72-1.22-2.72-2.72h0c0-1.5,1.22-2.72,2.72-2.72h9.06c1.5,0,2.72-1.22,2.72-2.72v-21.49c0-1.5-1.22-2.72-2.72-2.72h-9.06c-1.5,0-2.72-1.22-2.72-2.72h0c0-1.5,1.22-2.72,2.72-2.72h29.5c1.5,0,2.72,1.22,2.72,2.72h0c0,1.5-1.22,2.72-2.72,2.72h-9.06c-1.5,0-2.72,1.22-2.72,2.72Z"/>
  </g>
  <text class="cls-5" transform="translate(341.29 86.33)"><tspan x="0" y="0">Universal</tspan><tspan x="0" y="99.89">Innovation</tspan></text>
  <line class="cls-4" x1="345.69" y1="114.26" x2="866.77" y2="114.26"/>
</svg>